<svg width="314.501" height="100.3" viewBox="0 0 314.501 100.3" xmlns="http://www.w3.org/2000/svg"><g id="svgGroup" stroke-linecap="round" fill-rule="evenodd" font-size="9pt" stroke="#000" stroke-width="0.25mm" fill="black" style="stroke:#000;stroke-width:0.25mm;fill:black"><path d="M 268.501 33.5 L 268.101 35.1 Q 267.855 37.551 267.811 44.873 A 577.636 577.636 0 0 0 267.801 48.4 A 379.196 379.196 0 0 0 267.816 51.994 Q 267.868 57.424 268.089 59.985 A 17.342 17.342 0 0 0 268.251 61.35 Q 268.639 63.636 268.692 64.62 A 5.233 5.233 0 0 1 268.701 64.9 A 2.223 2.223 0 0 1 268.475 65.856 Q 268.325 66.173 268.077 66.489 A 4.49 4.49 0 0 1 267.901 66.7 Q 264.538 70.261 258.436 70.3 A 21.203 21.203 0 0 1 258.301 70.3 A 5.566 5.566 0 0 1 257.553 70.254 Q 256.101 70.056 256.101 69 Q 258.101 57 258.101 38.4 Q 258.101 31.5 257.801 29.1 L 257.401 25.9 Q 257.301 24.8 257.001 23.5 A 0.856 0.856 0 0 1 257.474 22.746 Q 258.211 22.3 260.101 22.3 Q 263.143 22.3 264.83 23.788 A 5.429 5.429 0 0 1 266.201 25.7 Q 266.25 25.9 266.35 26 A 0.339 0.339 0 0 0 266.601 26.1 A 0.503 0.503 0 0 0 266.763 26.065 Q 267.126 25.934 267.972 25.321 A 20.464 20.464 0 0 0 268.001 25.3 A 11.402 11.402 0 0 1 272.085 23.291 Q 273.695 22.848 275.599 22.737 A 22.424 22.424 0 0 1 276.901 22.7 Q 280.101 22.7 283.201 23.9 Q 286.301 25.1 287.501 27.1 A 0.432 0.432 0 0 0 287.571 27.203 A 0.301 0.301 0 0 0 287.801 27.3 A 0.314 0.314 0 0 0 287.919 27.273 Q 288.087 27.203 288.344 26.955 A 4.17 4.17 0 0 0 288.401 26.9 Q 292.601 22.7 299.301 22.7 A 19.13 19.13 0 0 1 303.864 23.206 A 11.157 11.157 0 0 1 311.501 29.1 A 11.149 11.149 0 0 1 312.321 31.536 Q 312.582 32.723 312.663 34.104 A 21.987 21.987 0 0 1 312.701 35.4 Q 312.701 39.2 312.101 46.2 Q 311.501 53.2 311.501 56.9 Q 311.501 60.6 312.251 63.6 Q 312.843 65.97 313.435 67.278 A 7.137 7.137 0 0 0 313.751 67.9 A 37.974 37.974 0 0 1 313.926 68.208 Q 314.393 69.034 314.48 69.305 A 0.34 0.34 0 0 1 314.501 69.4 A 1.007 1.007 0 0 1 313.906 70.322 Q 313.404 70.595 312.478 70.671 A 9.555 9.555 0 0 1 311.701 70.7 Q 304.801 70.7 302.101 67.9 A 9.477 9.477 0 0 1 299.575 62.748 A 13.337 13.337 0 0 1 299.401 60.55 A 30.691 30.691 0 0 1 299.581 57.394 Q 299.923 54.115 300.91 49.719 A 112.601 112.601 0 0 1 301.251 48.25 Q 302.716 42.109 303.021 38.386 A 22.06 22.06 0 0 0 303.101 36.6 A 14.32 14.32 0 0 0 302.836 33.717 Q 301.928 29.32 297.899 28.777 A 8.972 8.972 0 0 0 296.701 28.7 A 7.366 7.366 0 0 0 294.839 28.923 A 5.253 5.253 0 0 0 292.401 30.3 A 9.045 9.045 0 0 0 291.454 31.4 Q 291.005 32.024 290.753 32.647 A 4.477 4.477 0 0 0 290.501 33.5 L 290.301 35.1 A 94.148 94.148 0 0 0 290.057 38.817 Q 289.901 42.138 289.901 46.2 Q 289.901 51.177 290.018 54.483 A 97.403 97.403 0 0 0 290.101 56.35 Q 290.301 60 290.501 62.05 Q 290.701 64.1 290.701 64.5 A 3.939 3.939 0 0 1 289.193 67.615 Q 288.601 68.117 287.776 68.533 A 10.281 10.281 0 0 1 287.201 68.8 Q 283.701 70.3 280.401 70.3 A 3.015 3.015 0 0 1 279.769 70.24 Q 278.701 70.01 278.701 68.9 A 57.058 57.058 0 0 0 279.439 63.973 Q 280.007 58.794 280.087 51.643 A 214.095 214.095 0 0 0 280.101 49.25 A 2514.692 2514.692 0 0 0 280.097 44.87 Q 280.082 36.169 280.001 34.3 A 6.996 6.996 0 0 0 279.739 32.641 A 5.014 5.014 0 0 0 278.601 30.6 Q 277.554 29.473 276.735 29.124 A 2.069 2.069 0 0 0 276.351 29 A 7.404 7.404 0 0 0 275.684 28.895 Q 274.869 28.8 273.701 28.8 A 3.987 3.987 0 0 0 271.781 29.311 Q 271.082 29.69 270.401 30.35 A 8.589 8.589 0 0 0 269.454 31.422 Q 268.982 32.063 268.728 32.714 A 4.368 4.368 0 0 0 268.501 33.5 Z M 176.901 55.8 L 177.201 76.8 A 32.303 32.303 0 0 1 176.309 84.581 A 23.888 23.888 0 0 1 172.001 93.6 A 13.06 13.06 0 0 1 169.751 95.829 Q 168.576 96.754 167.078 97.575 A 25.97 25.97 0 0 1 165.651 98.3 A 20.485 20.485 0 0 1 160.252 99.944 A 27.818 27.818 0 0 1 155.701 100.3 A 5.284 5.284 0 0 1 155.17 99.931 Q 154.634 99.502 154.471 99.073 A 1.046 1.046 0 0 1 154.401 98.7 A 1.117 1.117 0 0 1 154.739 97.905 Q 154.9 97.737 155.139 97.591 A 3.286 3.286 0 0 1 155.501 97.4 A 12.544 12.544 0 0 0 160.324 93.341 Q 162.962 89.78 164.478 83.741 A 45.976 45.976 0 0 0 164.501 83.65 A 67.61 67.61 0 0 0 165.806 76.657 Q 167.201 66.585 167.201 50.7 L 167.001 36.7 L 166.701 29.9 Q 166.701 29 163.901 28.6 A 9.094 9.094 0 0 0 160.635 29.169 A 8.233 8.233 0 0 0 157.851 30.95 A 11.437 11.437 0 0 0 155.129 35.077 A 14.86 14.86 0 0 0 154.501 37.1 Q 153.276 41.77 152.988 45.474 A 28.188 28.188 0 0 0 152.901 47.65 A 23.281 23.281 0 0 0 153.219 51.591 A 17.465 17.465 0 0 0 154.351 55.5 A 6.339 6.339 0 0 0 155.467 57.293 Q 156.74 58.696 158.788 58.874 A 7.064 7.064 0 0 0 159.401 58.9 A 4.376 4.376 0 0 0 160.871 58.656 A 4.113 4.113 0 0 0 161.251 58.5 Q 161.996 58.149 162.318 58.106 A 0.625 0.625 0 0 1 162.401 58.1 A 0.799 0.799 0 0 1 163.147 58.592 Q 163.344 58.981 163.388 59.677 A 6.733 6.733 0 0 1 163.401 60.1 A 22.252 22.252 0 0 1 163.371 61.277 Q 163.339 61.884 163.271 62.402 A 9.159 9.159 0 0 1 163.101 63.35 A 7.677 7.677 0 0 1 162.728 64.481 Q 162.509 65.01 162.2 65.577 A 14.642 14.642 0 0 1 161.901 66.1 Q 160.298 68.745 156.255 69.27 A 16.751 16.751 0 0 1 154.101 69.4 A 12.506 12.506 0 0 1 150.872 69.01 A 8.116 8.116 0 0 1 145.801 65.2 Q 143.201 60.9 142.801 57.5 Q 142.286 53.13 142.213 51.33 A 13.149 13.149 0 0 1 142.201 50.8 Q 142.201 49.575 142.23 48.731 A 27.052 27.052 0 0 1 142.251 48.25 A 10.91 10.91 0 0 1 142.292 47.744 Q 142.374 46.927 142.599 45.43 A 139.185 139.185 0 0 1 142.751 44.45 A 44.11 44.11 0 0 1 143.594 40.344 A 39.055 39.055 0 0 1 143.951 39.05 A 26.658 26.658 0 0 1 144.769 36.704 Q 145.243 35.518 145.867 34.224 A 48.59 48.59 0 0 1 146.301 33.35 A 23.232 23.232 0 0 1 148.535 29.764 A 19.605 19.605 0 0 1 150.101 27.95 A 15.333 15.333 0 0 1 152.833 25.757 Q 154.213 24.877 155.901 24.15 Q 159.501 22.6 162.801 22.6 A 15.681 15.681 0 0 1 167.596 23.375 A 19.225 19.225 0 0 1 169.501 24.1 A 1.275 1.275 0 0 0 169.726 24.082 Q 169.961 24.039 170.101 23.9 Q 172.701 21.3 177.701 21.3 Q 178.901 21.3 178.901 22.4 Q 178.901 22.5 178.701 23.3 A 22.093 22.093 0 0 0 178.594 23.747 Q 178.426 24.488 178.201 25.65 A 27.816 27.816 0 0 0 177.99 26.904 Q 177.887 27.605 177.8 28.405 A 55.544 55.544 0 0 0 177.701 29.4 Q 177.001 35.1 176.951 42 Q 176.901 48.9 176.901 55.8 Z M 137.401 38.3 L 137.201 51.1 Q 137.201 62.118 139.191 65.861 A 4.67 4.67 0 0 0 140.101 67.1 A 1.474 1.474 0 0 1 140.359 67.442 A 1.16 1.16 0 0 1 140.501 68 A 0.851 0.851 0 0 1 140.008 68.715 Q 138.811 69.443 134.71 69.496 A 51.214 51.214 0 0 1 134.051 69.5 A 16.398 16.398 0 0 1 131.721 69.349 Q 129.123 68.974 128.01 67.667 A 3.522 3.522 0 0 1 127.201 65.7 A 9.722 9.722 0 0 1 127.162 65.215 Q 127.101 64.188 127.101 62 L 127.501 46 Q 127.501 45.3 126.701 45.3 Q 121.901 45.3 117.701 48 A 11.073 11.073 0 0 0 115.486 49.834 A 7.289 7.289 0 0 0 113.501 54.9 A 6.683 6.683 0 0 0 113.73 56.691 A 5.28 5.28 0 0 0 114.701 58.6 Q 115.901 60.1 117.651 60.1 A 7.244 7.244 0 0 0 118.879 60.002 Q 119.593 59.879 120.175 59.603 A 4.108 4.108 0 0 0 120.551 59.4 A 152.561 152.561 0 0 1 120.948 59.159 Q 121.632 58.746 121.845 58.629 A 1.827 1.827 0 0 1 121.901 58.6 Q 123.402 58.777 123.577 61.412 A 11.16 11.16 0 0 1 123.601 62.15 A 5.974 5.974 0 0 1 121.475 66.807 A 8.726 8.726 0 0 1 120.501 67.55 A 12.478 12.478 0 0 1 116.944 69.201 A 10.977 10.977 0 0 1 114.001 69.6 Q 110.721 69.6 108.325 68.484 A 10.017 10.017 0 0 1 108.151 68.4 A 14.058 14.058 0 0 1 106.641 67.55 Q 105.907 67.07 105.356 66.549 A 6.305 6.305 0 0 1 104.601 65.7 A 13.412 13.412 0 0 1 103.077 62.999 A 15.461 15.461 0 0 1 102.801 62.3 A 19.396 19.396 0 0 1 102.374 60.66 Q 102.101 59.363 102.101 58.3 A 18.021 18.021 0 0 1 102.759 53.305 A 13.631 13.631 0 0 1 106.501 47.1 A 23.21 23.21 0 0 1 113.352 42.621 A 30.399 30.399 0 0 1 117.801 41.1 A 96.123 96.123 0 0 0 120.672 40.49 Q 126.969 39.042 127.301 37.8 A 5.796 5.796 0 0 0 127.432 37.156 Q 127.545 36.413 127.582 35.289 A 36.097 36.097 0 0 0 127.601 34.1 Q 127.601 29.892 124.196 29.025 A 8.105 8.105 0 0 0 122.201 28.8 Q 119.901 28.8 118.101 30.25 A 5.025 5.025 0 0 0 116.902 31.607 A 4.432 4.432 0 0 0 116.301 33.9 L 116.901 36.3 A 1.686 1.686 0 0 1 116.088 37.537 Q 115.186 38.134 113.301 38.3 L 112.201 38.4 A 9.738 9.738 0 0 1 110.286 38.223 Q 108.599 37.885 107.451 36.9 A 4.916 4.916 0 0 1 105.713 33.322 A 6.791 6.791 0 0 1 105.701 32.9 A 5.787 5.787 0 0 1 105.901 31.433 Q 106.075 30.771 106.399 30.058 A 11.691 11.691 0 0 1 106.751 29.35 A 10.117 10.117 0 0 1 108.234 27.252 A 8.752 8.752 0 0 1 109.401 26.2 A 8.559 8.559 0 0 1 110.571 25.475 Q 111.84 24.812 113.719 24.236 A 31.556 31.556 0 0 1 114.351 24.05 A 25.255 25.255 0 0 1 118.44 23.234 A 21.28 21.28 0 0 1 120.801 23.1 Q 123.356 23.1 124.96 23.236 A 19.819 19.819 0 0 1 125.601 23.3 A 20.425 20.425 0 0 1 126.769 23.476 Q 128.008 23.696 129.689 24.109 A 77.138 77.138 0 0 1 130.251 24.25 A 10.173 10.173 0 0 1 133.727 25.842 A 9.577 9.577 0 0 1 135.151 27.1 A 9.024 9.024 0 0 1 136.399 28.779 A 6.389 6.389 0 0 1 137.251 31.55 Q 137.365 33.349 137.392 36.35 A 217.947 217.947 0 0 1 137.401 38.3 Z M 250.001 38.3 L 249.801 51.1 Q 249.801 62.118 251.791 65.861 A 4.67 4.67 0 0 0 252.701 67.1 A 1.474 1.474 0 0 1 252.959 67.442 A 1.16 1.16 0 0 1 253.101 68 A 0.851 0.851 0 0 1 252.608 68.715 Q 251.411 69.443 247.31 69.496 A 51.214 51.214 0 0 1 246.651 69.5 A 16.398 16.398 0 0 1 244.321 69.349 Q 241.723 68.974 240.61 67.667 A 3.522 3.522 0 0 1 239.801 65.7 A 9.722 9.722 0 0 1 239.762 65.215 Q 239.701 64.188 239.701 62 L 240.101 46 Q 240.101 45.3 239.301 45.3 Q 234.501 45.3 230.301 48 A 11.073 11.073 0 0 0 228.086 49.834 A 7.289 7.289 0 0 0 226.101 54.9 A 6.683 6.683 0 0 0 226.33 56.691 A 5.28 5.28 0 0 0 227.301 58.6 Q 228.501 60.1 230.251 60.1 A 7.244 7.244 0 0 0 231.479 60.002 Q 232.193 59.879 232.775 59.603 A 4.108 4.108 0 0 0 233.151 59.4 A 152.561 152.561 0 0 1 233.548 59.159 Q 234.232 58.746 234.445 58.629 A 1.827 1.827 0 0 1 234.501 58.6 Q 236.002 58.777 236.177 61.412 A 11.16 11.16 0 0 1 236.201 62.15 A 5.974 5.974 0 0 1 234.075 66.807 A 8.726 8.726 0 0 1 233.101 67.55 A 12.478 12.478 0 0 1 229.544 69.201 A 10.977 10.977 0 0 1 226.601 69.6 Q 223.321 69.6 220.925 68.484 A 10.017 10.017 0 0 1 220.751 68.4 A 14.058 14.058 0 0 1 219.241 67.55 Q 218.507 67.07 217.956 66.549 A 6.305 6.305 0 0 1 217.201 65.7 A 13.412 13.412 0 0 1 215.677 62.999 A 15.461 15.461 0 0 1 215.401 62.3 A 19.396 19.396 0 0 1 214.974 60.66 Q 214.701 59.363 214.701 58.3 A 18.021 18.021 0 0 1 215.359 53.305 A 13.631 13.631 0 0 1 219.101 47.1 A 23.21 23.21 0 0 1 225.952 42.621 A 30.399 30.399 0 0 1 230.401 41.1 A 96.123 96.123 0 0 0 233.272 40.49 Q 239.569 39.042 239.901 37.8 A 5.796 5.796 0 0 0 240.032 37.156 Q 240.145 36.413 240.182 35.289 A 36.097 36.097 0 0 0 240.201 34.1 Q 240.201 29.892 236.796 29.025 A 8.105 8.105 0 0 0 234.801 28.8 Q 232.501 28.8 230.701 30.25 A 5.025 5.025 0 0 0 229.502 31.607 A 4.432 4.432 0 0 0 228.901 33.9 L 229.501 36.3 A 1.686 1.686 0 0 1 228.688 37.537 Q 227.786 38.134 225.901 38.3 L 224.801 38.4 A 9.738 9.738 0 0 1 222.886 38.223 Q 221.199 37.885 220.051 36.9 A 4.916 4.916 0 0 1 218.313 33.322 A 6.791 6.791 0 0 1 218.301 32.9 A 5.787 5.787 0 0 1 218.501 31.433 Q 218.675 30.771 218.999 30.058 A 11.691 11.691 0 0 1 219.351 29.35 A 10.117 10.117 0 0 1 220.834 27.252 A 8.752 8.752 0 0 1 222.001 26.2 A 8.559 8.559 0 0 1 223.171 25.475 Q 224.44 24.812 226.319 24.236 A 31.556 31.556 0 0 1 226.951 24.05 A 25.255 25.255 0 0 1 231.04 23.234 A 21.28 21.28 0 0 1 233.401 23.1 Q 235.956 23.1 237.56 23.236 A 19.819 19.819 0 0 1 238.201 23.3 A 20.425 20.425 0 0 1 239.369 23.476 Q 240.608 23.696 242.289 24.109 A 77.138 77.138 0 0 1 242.851 24.25 A 10.173 10.173 0 0 1 246.327 25.842 A 9.577 9.577 0 0 1 247.751 27.1 A 9.024 9.024 0 0 1 248.999 28.779 A 6.389 6.389 0 0 1 249.851 31.55 Q 249.965 33.349 249.992 36.35 A 217.947 217.947 0 0 1 250.001 38.3 Z M 17.001 43.3 L 17.501 63.3 A 41.013 41.013 0 0 1 17.138 68.888 A 29.902 29.902 0 0 1 15.851 74.45 A 28.58 28.58 0 0 1 14.687 77.369 Q 14.015 78.803 13.249 79.929 A 12.195 12.195 0 0 1 11.801 81.7 A 36.316 36.316 0 0 1 9.282 84.099 Q 5.918 86.986 3.201 87.5 L 1.501 87.9 Q 0.522 87.9 0.182 87.517 A 0.75 0.75 0 0 1 0.001 87 L 0.501 85.5 Q 6.859 76.703 7.679 45.6 A 368.69 368.69 0 0 0 7.801 35.9 A 213.336 213.336 0 0 0 7.794 34.213 Q 7.776 31.85 7.701 30.5 Q 5.601 30.5 3.501 30.8 L 3.401 30.8 Q 2.528 30.8 2.347 30.107 A 1.621 1.621 0 0 1 2.301 29.7 L 2.601 25.9 Q 2.683 25.16 3.576 25.029 A 2.923 2.923 0 0 1 4.001 25 L 7.601 25 L 7.601 18.3 L 7.801 8.8 Q 7.801 8.144 8.02 7.357 A 7.768 7.768 0 0 1 8.051 7.25 Q 8.301 6.4 10.201 4.65 A 11.853 11.853 0 0 1 11.859 3.393 Q 13.474 2.362 15.801 1.45 A 26.752 26.752 0 0 1 18.22 0.625 Q 19.419 0.283 20.482 0.128 A 11.607 11.607 0 0 1 22.151 0 Q 24.801 0 24.801 1.6 A 0.803 0.803 0 0 1 24.579 2.146 Q 24.361 2.391 23.928 2.588 A 3.48 3.48 0 0 1 23.901 2.6 A 5.894 5.894 0 0 0 21.45 4.142 Q 20.718 4.883 20.082 5.932 A 15.24 15.24 0 0 0 19.151 7.75 Q 17.731 11.011 17.401 17.775 A 91.055 91.055 0 0 0 17.301 22.2 L 17.301 25 A 173.735 173.735 0 0 0 19.364 24.908 Q 22.143 24.766 23.483 24.582 A 10.738 10.738 0 0 0 24.001 24.5 A 0.579 0.579 0 0 1 24.554 24.854 Q 24.683 25.117 24.698 25.574 A 3.791 3.791 0 0 1 24.701 25.7 Q 24.701 26.835 23.762 28.461 A 12.955 12.955 0 0 1 23.651 28.65 Q 22.601 30.4 21.051 30.45 Q 19.646 30.495 17.625 30.418 A 86.264 86.264 0 0 1 17.201 30.4 Q 17.063 35.625 17.02 39.763 A 341.676 341.676 0 0 0 17.001 43.3 Z M 77.601 54.6 Q 77.601 58.9 75.951 62.1 A 18.074 18.074 0 0 1 74.706 64.181 Q 73.981 65.217 73.184 65.981 A 8.904 8.904 0 0 1 72.201 66.8 Q 70.101 68.3 67.201 69.2 A 28.704 28.704 0 0 1 64.009 70.02 Q 62.413 70.329 60.962 70.387 A 16.607 16.607 0 0 1 60.301 70.4 A 27.495 27.495 0 0 1 55.735 70.042 Q 52.188 69.444 49.501 67.85 A 8.336 8.336 0 0 1 45.378 61.849 A 12.438 12.438 0 0 1 45.201 59.7 A 9.92 9.92 0 0 1 45.475 57.305 A 7.217 7.217 0 0 1 47.001 54.3 A 9.797 9.797 0 0 1 49.635 52.195 A 8.471 8.471 0 0 1 53.701 51.2 Q 54.901 51.2 54.901 52.3 Q 54.901 52.388 54.557 53.505 A 129.338 129.338 0 0 1 54.451 53.85 Q 54.001 55.3 54.001 57.5 A 5.136 5.136 0 0 0 55.293 60.912 A 6.994 6.994 0 0 0 55.751 61.4 Q 57.501 63.1 60.001 63.1 A 11.974 11.974 0 0 0 61.584 63.002 Q 62.386 62.895 63.051 62.67 A 5.481 5.481 0 0 0 64.001 62.25 Q 65.501 61.4 66.101 60.1 A 9.473 9.473 0 0 0 66.7 58.617 Q 66.97 57.726 66.997 56.889 A 5.754 5.754 0 0 0 67.001 56.7 Q 67.001 53.8 64.101 51.7 Q 61.201 49.6 57.701 48.4 A 16.826 16.826 0 0 1 52.221 45.236 A 19.954 19.954 0 0 1 51.301 44.4 A 9.287 9.287 0 0 1 48.403 37.661 A 11.979 11.979 0 0 1 48.401 37.4 A 18.053 18.053 0 0 1 48.879 33.11 A 11.519 11.519 0 0 1 52.951 26.6 A 15.636 15.636 0 0 1 58.507 23.845 Q 60.768 23.211 63.459 23.053 A 31.346 31.346 0 0 1 65.301 23 A 27.243 27.243 0 0 1 69.914 23.409 A 33.259 33.259 0 0 1 72.451 23.95 A 10.383 10.383 0 0 1 73.866 24.409 Q 76.201 25.375 76.201 27.15 A 11.805 11.805 0 0 1 75.878 29.953 A 10.315 10.315 0 0 1 75.451 31.3 A 6.223 6.223 0 0 1 75.106 32.039 Q 74.46 33.2 73.601 33.2 A 1.227 1.227 0 0 1 73.302 33.166 A 0.709 0.709 0 0 1 72.801 32.75 A 2.967 2.967 0 0 0 72.628 32.423 Q 72.429 32.094 72.101 31.7 A 2.41 2.41 0 0 0 71.77 31.384 Q 71.133 30.866 69.701 30.15 A 12.158 12.158 0 0 0 68.567 29.649 Q 67.991 29.432 67.477 29.32 A 4.832 4.832 0 0 0 66.451 29.2 Q 65.101 29.2 64.651 29.25 Q 64.201 29.3 63.101 29.55 A 7.835 7.835 0 0 0 61.63 30.035 A 6.889 6.889 0 0 0 61.101 30.3 A 5.012 5.012 0 0 0 59.794 31.332 Q 58.847 32.404 58.803 33.947 A 5.317 5.317 0 0 0 58.801 34.1 A 5.795 5.795 0 0 0 58.859 34.954 Q 59.003 35.917 59.501 36.45 Q 60.036 37.024 60.397 37.393 A 23.739 23.739 0 0 0 60.601 37.6 A 2.93 2.93 0 0 0 60.873 37.837 Q 61.182 38.077 61.668 38.362 A 14.338 14.338 0 0 0 62.001 38.55 Q 62.824 39.003 63.24 39.219 A 13.097 13.097 0 0 0 63.401 39.3 A 18.031 18.031 0 0 0 63.623 39.409 Q 63.993 39.588 64.721 39.927 A 300.073 300.073 0 0 0 65.201 40.15 A 287.998 287.998 0 0 1 65.765 40.413 Q 66.472 40.743 66.82 40.912 A 16.275 16.275 0 0 1 67.001 41 Q 77.601 46 77.601 54.6 Z M 214.401 33.9 L 213.901 41.5 L 214.301 45 A 1.548 1.548 0 0 1 213.314 46.469 Q 212.576 46.823 211.286 46.886 A 11.983 11.983 0 0 1 210.701 46.9 A 14.242 14.242 0 0 1 208.059 46.678 Q 203.709 45.852 203.421 41.967 A 7.663 7.663 0 0 1 203.401 41.4 A 6.774 6.774 0 0 1 203.465 40.515 Q 203.59 39.581 203.951 38.307 A 28.107 28.107 0 0 1 204.101 37.8 A 19.396 19.396 0 0 0 204.527 36.16 Q 204.801 34.863 204.801 33.8 Q 204.801 32.1 203.801 30.85 Q 202.801 29.6 200.901 29.6 A 4.424 4.424 0 0 0 197.693 30.908 A 5.392 5.392 0 0 0 197.651 30.95 A 7.667 7.667 0 0 0 196.801 31.948 Q 196.381 32.544 196.16 33.148 A 4.13 4.13 0 0 0 196.001 33.7 L 195.601 35.1 Q 195.148 37.437 195.037 42.133 A 140.562 140.562 0 0 0 195.001 45.45 Q 195.001 51.001 195.118 54.735 A 126.894 126.894 0 0 0 195.201 56.85 Q 195.374 60.447 195.547 62.091 A 20.03 20.03 0 0 0 195.601 62.55 A 100.246 100.246 0 0 1 195.668 63.087 Q 195.783 64.014 195.798 64.321 A 1.645 1.645 0 0 1 195.801 64.4 A 3.748 3.748 0 0 1 194.605 67.139 Q 194.08 67.659 193.326 68.109 A 9.641 9.641 0 0 1 192.701 68.45 A 14.928 14.928 0 0 1 189.213 69.703 A 12.66 12.66 0 0 1 186.501 70 A 11.155 11.155 0 0 1 185.487 69.958 Q 183.849 69.808 183.497 69.119 A 0.906 0.906 0 0 1 183.401 68.7 L 183.901 65.6 Q 184.841 59.755 185.15 51.517 A 230.877 230.877 0 0 0 185.301 42.9 A 309.445 309.445 0 0 0 185.246 36.832 Q 185.066 27.728 184.301 23.9 Q 184.301 22.7 186.401 22.7 A 12.127 12.127 0 0 1 189.015 22.961 Q 192.279 23.683 193.601 26.4 A 1.063 1.063 0 0 0 193.649 26.551 Q 193.753 26.8 193.951 26.8 A 0.371 0.371 0 0 0 194.087 26.763 Q 194.424 26.617 195.301 25.9 A 11.906 11.906 0 0 1 202.943 23.201 A 14.893 14.893 0 0 1 203.101 23.2 A 15.018 15.018 0 0 1 208.088 24.073 A 17.304 17.304 0 0 1 208.701 24.3 A 8.433 8.433 0 0 1 213.946 30.178 Q 214.401 31.84 214.401 33.9 Z M 80.101 29.3 L 80.401 25.3 Q 80.483 24.56 81.376 24.429 A 2.923 2.923 0 0 1 81.801 24.4 L 85.301 24.4 L 84.901 16.4 L 84.901 16 Q 84.901 13.7 88.401 11.6 Q 90.967 10.06 93.212 9.649 A 8.821 8.821 0 0 1 94.801 9.5 A 1.474 1.474 0 0 1 95.14 9.536 Q 95.701 9.669 95.701 10.3 L 95.701 10.4 Q 95.301 13.1 94.901 24.3 Q 99.301 24.3 100.501 24.1 Q 101.701 23.9 101.801 23.9 A 0.579 0.579 0 0 1 102.354 24.254 Q 102.483 24.517 102.498 24.974 A 3.791 3.791 0 0 1 102.501 25.1 Q 102.501 26.187 101.599 27.806 A 14.022 14.022 0 0 1 101.401 28.15 Q 100.389 29.851 99.209 30.073 A 1.93 1.93 0 0 1 99.001 30.1 L 94.801 30.1 A 156.059 156.059 0 0 0 94.757 32.091 Q 94.706 35.152 94.701 40.306 A 1209.274 1209.274 0 0 0 94.701 41.55 Q 94.701 49.199 94.836 54.275 A 242.863 242.863 0 0 0 94.851 54.8 Q 95.001 60 95.201 62.65 Q 95.401 65.3 95.651 66.9 Q 95.881 68.374 96.026 69.084 A 13.061 13.061 0 0 0 96.051 69.2 Q 96.171 69.76 96.195 70 A 1.037 1.037 0 0 1 96.201 70.1 A 1.097 1.097 0 0 1 96.092 70.603 Q 95.825 71.129 94.901 71.2 Q 91.001 71.2 87.151 70.1 A 9.417 9.417 0 0 1 85.65 69.542 Q 83.301 68.41 83.301 66.3 A 270.88 270.88 0 0 0 85.105 44.324 A 329.732 329.732 0 0 0 85.401 30.2 Q 83.178 30.2 81.836 30.336 A 13.139 13.139 0 0 0 81.301 30.4 L 81.201 30.4 A 1.077 1.077 0 0 1 80.696 30.287 Q 80.276 30.068 80.126 29.424 A 2.62 2.62 0 0 1 80.101 29.3 Z M 28.501 65.3 L 29.601 42 A 56.956 56.956 0 0 0 29.489 38.291 Q 29.14 32.974 27.701 30.7 A 5.315 5.315 0 0 0 27.137 29.921 Q 26.751 29.481 26.301 29.2 Q 25.744 29.015 25.704 28.486 A 1.117 1.117 0 0 1 25.701 28.4 A 1.633 1.633 0 0 1 26.15 27.34 Q 27.046 26.293 29.726 25.281 A 29.032 29.032 0 0 1 30.801 24.9 Q 35.901 23.2 38.251 23.2 A 6.96 6.96 0 0 1 39.053 23.242 Q 39.89 23.34 40.303 23.664 A 1.005 1.005 0 0 1 40.701 24.4 Q 40.701 26.272 40.219 34.578 A 1383.124 1383.124 0 0 1 40.151 35.75 Q 39.601 45.1 39.601 55.4 A 141.596 141.596 0 0 0 39.643 58.988 Q 39.826 66.169 40.801 68.2 A 2.227 2.227 0 0 1 41.016 68.669 A 1.741 1.741 0 0 1 41.101 69.2 Q 41.101 70.366 38.042 70.486 A 18.959 18.959 0 0 1 37.301 70.5 Q 33.501 70.5 29.501 68.5 Q 28.529 68.014 28.501 65.453 A 14.074 14.074 0 0 1 28.501 65.3 Z M 36.501 14.8 L 34.101 14.7 Q 31.401 14.7 30.601 16 A 0.819 0.819 0 0 1 30.466 16.158 A 0.533 0.533 0 0 1 30.101 16.3 A 0.813 0.813 0 0 1 29.408 15.855 Q 28.941 15.114 28.833 13.144 A 23.792 23.792 0 0 1 28.801 11.85 A 22.865 22.865 0 0 1 28.865 10.059 Q 29.081 7.327 30.017 6.33 A 2.066 2.066 0 0 1 30.151 6.2 A 3.789 3.789 0 0 1 31.314 5.517 Q 32.415 5.092 34.099 5.016 A 16.833 16.833 0 0 1 34.851 5 A 15.28 15.28 0 0 1 36.369 5.07 Q 38.496 5.283 39.401 6.15 A 3.338 3.338 0 0 1 40.177 7.34 Q 40.574 8.331 40.599 9.802 A 11.768 11.768 0 0 1 40.601 10 A 12.79 12.79 0 0 1 40.544 11.247 Q 40.376 12.963 39.701 13.75 A 2.556 2.556 0 0 1 38.738 14.43 Q 37.921 14.777 36.671 14.799 A 9.739 9.739 0 0 1 36.501 14.8 Z" vector-effect="non-scaling-stroke"/></g></svg>